<mxfile host="www.draw.io" modified="2019-10-31T03:32:28.514Z" agent="Mozilla/5.0 (Windows NT 10.0; Win64; x64) AppleWebKit/537.36 (KHTML, like Gecko) Chrome/71.0.3578.98 Safari/537.36" etag="aCTktQsfrQnhpUVA2iwP" version="12.1.7" type="github" pages="1">
  <diagram id="wLU2tdWBDPSavo1qB9YM" name="Page-1">
    <mxGraphModel dx="1422" dy="763" grid="0" gridSize="10" guides="1" tooltips="1" connect="1" arrows="1" fold="1" page="0" pageScale="1" pageWidth="827" pageHeight="1169" background="none" math="0" shadow="1">
      <root>
        <mxCell id="0"/>
        <mxCell id="1" parent="0"/>
        <mxCell id="5OKpuzXUWrd5rzmZAvVE-1" value="服务器VM" style="fillColor=#D4E1F5;strokeColor=none;dashed=0;verticalAlign=top;fontStyle=0;fontColor=#232F3D;" vertex="1" parent="1">
          <mxGeometry x="1050" y="137" width="240" height="330" as="geometry"/>
        </mxCell>
        <mxCell id="5OKpuzXUWrd5rzmZAvVE-2" value="终端多用户" style="fillColor=#E6D0DE;strokeColor=none;dashed=0;verticalAlign=top;fontStyle=0;fontColor=#232F3D;" vertex="1" parent="1">
          <mxGeometry x="72" y="160" width="130" height="299" as="geometry"/>
        </mxCell>
        <mxCell id="5OKpuzXUWrd5rzmZAvVE-12" value="&lt;font style=&quot;font-size: 14px&quot;&gt;Internet Gateway&lt;/font&gt;" style="outlineConnect=0;dashed=0;verticalLabelPosition=bottom;verticalAlign=top;align=center;html=1;shape=mxgraph.aws3.internet_gateway;fillColor=#F58534;gradientColor=none;" vertex="1" parent="1">
          <mxGeometry x="607" y="279.5" width="69" height="71" as="geometry"/>
        </mxCell>
        <mxCell id="5OKpuzXUWrd5rzmZAvVE-13" value="Client" style="outlineConnect=0;fontColor=#232F3E;gradientColor=none;strokeColor=#232F3E;fillColor=#ffffff;dashed=0;verticalLabelPosition=bottom;verticalAlign=top;align=center;html=1;fontSize=12;fontStyle=0;aspect=fixed;shape=mxgraph.aws4.resourceIcon;resIcon=mxgraph.aws4.client;" vertex="1" parent="1">
          <mxGeometry x="107" y="185.5" width="60" height="60" as="geometry"/>
        </mxCell>
        <mxCell id="5OKpuzXUWrd5rzmZAvVE-15" value="&lt;font style=&quot;font-size: 14px&quot;&gt;NAT gateway&lt;/font&gt;" style="outlineConnect=0;fontColor=#232F3E;gradientColor=none;strokeColor=#232F3E;fillColor=#ffffff;dashed=0;verticalLabelPosition=bottom;verticalAlign=top;align=center;html=1;fontSize=12;fontStyle=0;aspect=fixed;shape=mxgraph.aws4.resourceIcon;resIcon=mxgraph.aws4.nat_gateway;" vertex="1" parent="1">
          <mxGeometry x="297" y="268.5" width="93" height="93" as="geometry"/>
        </mxCell>
        <mxCell id="5OKpuzXUWrd5rzmZAvVE-16" value="Client" style="outlineConnect=0;fontColor=#232F3E;gradientColor=none;strokeColor=#232F3E;fillColor=#ffffff;dashed=0;verticalLabelPosition=bottom;verticalAlign=top;align=center;html=1;fontSize=12;fontStyle=0;aspect=fixed;shape=mxgraph.aws4.resourceIcon;resIcon=mxgraph.aws4.client;" vertex="1" parent="1">
          <mxGeometry x="107" y="278" width="60" height="60" as="geometry"/>
        </mxCell>
        <mxCell id="5OKpuzXUWrd5rzmZAvVE-17" value="Client" style="outlineConnect=0;fontColor=#232F3E;gradientColor=none;strokeColor=#232F3E;fillColor=#ffffff;dashed=0;verticalLabelPosition=bottom;verticalAlign=top;align=center;html=1;fontSize=12;fontStyle=0;aspect=fixed;shape=mxgraph.aws4.resourceIcon;resIcon=mxgraph.aws4.client;" vertex="1" parent="1">
          <mxGeometry x="107" y="372.5" width="60" height="60" as="geometry"/>
        </mxCell>
        <mxCell id="5OKpuzXUWrd5rzmZAvVE-19" value="" style="edgeStyle=orthogonalEdgeStyle;html=1;endArrow=block;elbow=vertical;startArrow=block;startFill=1;endFill=1;strokeColor=#545B64;rounded=0;" edge="1" parent="1" target="5OKpuzXUWrd5rzmZAvVE-12" source="5OKpuzXUWrd5rzmZAvVE-35">
          <mxGeometry width="100" relative="1" as="geometry">
            <mxPoint x="377" y="334.5" as="sourcePoint"/>
            <mxPoint x="407" y="336.5" as="targetPoint"/>
          </mxGeometry>
        </mxCell>
        <mxCell id="5OKpuzXUWrd5rzmZAvVE-20" value="VM" style="points=[[0,0],[0.25,0],[0.5,0],[0.75,0],[1,0],[1,0.25],[1,0.5],[1,0.75],[1,1],[0.75,1],[0.5,1],[0.25,1],[0,1],[0,0.75],[0,0.5],[0,0.25]];outlineConnect=0;gradientColor=none;html=1;whiteSpace=wrap;fontSize=12;fontStyle=0;shape=mxgraph.aws4.group;grIcon=mxgraph.aws4.group_vpc;strokeColor=#248814;fillColor=none;verticalAlign=top;align=left;spacingLeft=30;fontColor=#AAB7B8;dashed=0;" vertex="1" parent="1">
          <mxGeometry x="1085" y="168.5" width="60" height="47" as="geometry"/>
        </mxCell>
        <mxCell id="5OKpuzXUWrd5rzmZAvVE-21" value="VM" style="points=[[0,0],[0.25,0],[0.5,0],[0.75,0],[1,0],[1,0.25],[1,0.5],[1,0.75],[1,1],[0.75,1],[0.5,1],[0.25,1],[0,1],[0,0.75],[0,0.5],[0,0.25]];outlineConnect=0;gradientColor=none;html=1;whiteSpace=wrap;fontSize=12;fontStyle=0;shape=mxgraph.aws4.group;grIcon=mxgraph.aws4.group_vpc;strokeColor=#248814;fillColor=none;verticalAlign=top;align=left;spacingLeft=30;fontColor=#AAB7B8;dashed=0;" vertex="1" parent="1">
          <mxGeometry x="1085" y="228.5" width="60" height="47" as="geometry"/>
        </mxCell>
        <mxCell id="5OKpuzXUWrd5rzmZAvVE-22" value="VM" style="points=[[0,0],[0.25,0],[0.5,0],[0.75,0],[1,0],[1,0.25],[1,0.5],[1,0.75],[1,1],[0.75,1],[0.5,1],[0.25,1],[0,1],[0,0.75],[0,0.5],[0,0.25]];outlineConnect=0;gradientColor=none;html=1;whiteSpace=wrap;fontSize=12;fontStyle=0;shape=mxgraph.aws4.group;grIcon=mxgraph.aws4.group_vpc;strokeColor=#248814;fillColor=none;verticalAlign=top;align=left;spacingLeft=30;fontColor=#AAB7B8;dashed=0;" vertex="1" parent="1">
          <mxGeometry x="1085" y="291.5" width="60" height="47" as="geometry"/>
        </mxCell>
        <mxCell id="5OKpuzXUWrd5rzmZAvVE-23" value="VM" style="points=[[0,0],[0.25,0],[0.5,0],[0.75,0],[1,0],[1,0.25],[1,0.5],[1,0.75],[1,1],[0.75,1],[0.5,1],[0.25,1],[0,1],[0,0.75],[0,0.5],[0,0.25]];outlineConnect=0;gradientColor=none;html=1;whiteSpace=wrap;fontSize=12;fontStyle=0;shape=mxgraph.aws4.group;grIcon=mxgraph.aws4.group_vpc;strokeColor=#248814;fillColor=none;verticalAlign=top;align=left;spacingLeft=30;fontColor=#AAB7B8;dashed=0;" vertex="1" parent="1">
          <mxGeometry x="1085" y="349" width="60" height="47" as="geometry"/>
        </mxCell>
        <mxCell id="5OKpuzXUWrd5rzmZAvVE-24" value="VM" style="points=[[0,0],[0.25,0],[0.5,0],[0.75,0],[1,0],[1,0.25],[1,0.5],[1,0.75],[1,1],[0.75,1],[0.5,1],[0.25,1],[0,1],[0,0.75],[0,0.5],[0,0.25]];outlineConnect=0;gradientColor=none;html=1;whiteSpace=wrap;fontSize=12;fontStyle=0;shape=mxgraph.aws4.group;grIcon=mxgraph.aws4.group_vpc;strokeColor=#248814;fillColor=none;verticalAlign=top;align=left;spacingLeft=30;fontColor=#AAB7B8;dashed=0;" vertex="1" parent="1">
          <mxGeometry x="1085" y="406.5" width="60" height="47" as="geometry"/>
        </mxCell>
        <mxCell id="5OKpuzXUWrd5rzmZAvVE-25" value="协议代理+keepalive" style="outlineConnect=0;fontColor=#232F3E;gradientColor=none;strokeColor=#232F3E;fillColor=#ffffff;dashed=0;verticalLabelPosition=bottom;verticalAlign=top;align=center;html=1;fontSize=12;fontStyle=0;aspect=fixed;shape=mxgraph.aws4.resourceIcon;resIcon=mxgraph.aws4.peering;" vertex="1" parent="1">
          <mxGeometry x="757" y="359" width="80" height="80" as="geometry"/>
        </mxCell>
        <mxCell id="5OKpuzXUWrd5rzmZAvVE-26" value="交换机" style="outlineConnect=0;dashed=0;verticalLabelPosition=bottom;verticalAlign=top;align=center;html=1;shape=mxgraph.aws3.application_load_balancer;fillColor=#F58536;gradientColor=none;" vertex="1" parent="1">
          <mxGeometry x="918" y="266" width="69" height="72" as="geometry"/>
        </mxCell>
        <mxCell id="5OKpuzXUWrd5rzmZAvVE-27" value="VM" style="points=[[0,0],[0.25,0],[0.5,0],[0.75,0],[1,0],[1,0.25],[1,0.5],[1,0.75],[1,1],[0.75,1],[0.5,1],[0.25,1],[0,1],[0,0.75],[0,0.5],[0,0.25]];outlineConnect=0;gradientColor=none;html=1;whiteSpace=wrap;fontSize=12;fontStyle=0;shape=mxgraph.aws4.group;grIcon=mxgraph.aws4.group_vpc;strokeColor=#248814;fillColor=none;verticalAlign=top;align=left;spacingLeft=30;fontColor=#AAB7B8;dashed=0;" vertex="1" parent="1">
          <mxGeometry x="1200" y="165.5" width="60" height="47" as="geometry"/>
        </mxCell>
        <mxCell id="5OKpuzXUWrd5rzmZAvVE-28" value="VM" style="points=[[0,0],[0.25,0],[0.5,0],[0.75,0],[1,0],[1,0.25],[1,0.5],[1,0.75],[1,1],[0.75,1],[0.5,1],[0.25,1],[0,1],[0,0.75],[0,0.5],[0,0.25]];outlineConnect=0;gradientColor=none;html=1;whiteSpace=wrap;fontSize=12;fontStyle=0;shape=mxgraph.aws4.group;grIcon=mxgraph.aws4.group_vpc;strokeColor=#248814;fillColor=none;verticalAlign=top;align=left;spacingLeft=30;fontColor=#AAB7B8;dashed=0;" vertex="1" parent="1">
          <mxGeometry x="1200" y="225.5" width="60" height="47" as="geometry"/>
        </mxCell>
        <mxCell id="5OKpuzXUWrd5rzmZAvVE-29" value="VM" style="points=[[0,0],[0.25,0],[0.5,0],[0.75,0],[1,0],[1,0.25],[1,0.5],[1,0.75],[1,1],[0.75,1],[0.5,1],[0.25,1],[0,1],[0,0.75],[0,0.5],[0,0.25]];outlineConnect=0;gradientColor=none;html=1;whiteSpace=wrap;fontSize=12;fontStyle=0;shape=mxgraph.aws4.group;grIcon=mxgraph.aws4.group_vpc;strokeColor=#248814;fillColor=none;verticalAlign=top;align=left;spacingLeft=30;fontColor=#AAB7B8;dashed=0;" vertex="1" parent="1">
          <mxGeometry x="1200" y="285.5" width="60" height="47" as="geometry"/>
        </mxCell>
        <mxCell id="5OKpuzXUWrd5rzmZAvVE-30" value="VM" style="points=[[0,0],[0.25,0],[0.5,0],[0.75,0],[1,0],[1,0.25],[1,0.5],[1,0.75],[1,1],[0.75,1],[0.5,1],[0.25,1],[0,1],[0,0.75],[0,0.5],[0,0.25]];outlineConnect=0;gradientColor=none;html=1;whiteSpace=wrap;fontSize=12;fontStyle=0;shape=mxgraph.aws4.group;grIcon=mxgraph.aws4.group_vpc;strokeColor=#248814;fillColor=none;verticalAlign=top;align=left;spacingLeft=30;fontColor=#AAB7B8;dashed=0;" vertex="1" parent="1">
          <mxGeometry x="1200" y="345.5" width="60" height="47" as="geometry"/>
        </mxCell>
        <mxCell id="5OKpuzXUWrd5rzmZAvVE-31" value="VM" style="points=[[0,0],[0.25,0],[0.5,0],[0.75,0],[1,0],[1,0.25],[1,0.5],[1,0.75],[1,1],[0.75,1],[0.5,1],[0.25,1],[0,1],[0,0.75],[0,0.5],[0,0.25]];outlineConnect=0;gradientColor=none;html=1;whiteSpace=wrap;fontSize=12;fontStyle=0;shape=mxgraph.aws4.group;grIcon=mxgraph.aws4.group_vpc;strokeColor=#248814;fillColor=none;verticalAlign=top;align=left;spacingLeft=30;fontColor=#AAB7B8;dashed=0;" vertex="1" parent="1">
          <mxGeometry x="1200" y="405.5" width="60" height="47" as="geometry"/>
        </mxCell>
        <mxCell id="5OKpuzXUWrd5rzmZAvVE-32" value="" style="edgeStyle=orthogonalEdgeStyle;html=1;endArrow=block;elbow=vertical;startArrow=block;startFill=1;endFill=1;strokeColor=#545B64;rounded=0;" edge="1" parent="1">
          <mxGeometry width="100" relative="1" as="geometry">
            <mxPoint x="987" y="304" as="sourcePoint"/>
            <mxPoint x="1047" y="304" as="targetPoint"/>
          </mxGeometry>
        </mxCell>
        <mxCell id="5OKpuzXUWrd5rzmZAvVE-34" value="&lt;h1&gt;协议代理+Keepalive架构&lt;/h1&gt;&lt;p&gt;&lt;br&gt;&lt;/p&gt;" style="text;html=1;strokeColor=none;fillColor=none;spacing=5;spacingTop=-20;whiteSpace=wrap;overflow=hidden;rounded=0;" vertex="1" parent="1">
          <mxGeometry x="607" y="40" width="288" height="60" as="geometry"/>
        </mxCell>
        <mxCell id="5OKpuzXUWrd5rzmZAvVE-35" value="" style="rounded=1;arcSize=10;dashed=1;strokeColor=#ff0000;fillColor=none;gradientColor=none;dashPattern=8 4;strokeWidth=2;" vertex="1" parent="1">
          <mxGeometry x="40" y="150" width="350" height="330" as="geometry"/>
        </mxCell>
        <mxCell id="5OKpuzXUWrd5rzmZAvVE-36" value="" style="edgeStyle=orthogonalEdgeStyle;html=1;endArrow=block;elbow=vertical;startArrow=block;startFill=1;endFill=1;strokeColor=#545B64;rounded=0;" edge="1" parent="1">
          <mxGeometry width="100" relative="1" as="geometry">
            <mxPoint x="198" y="310" as="sourcePoint"/>
            <mxPoint x="308" y="310" as="targetPoint"/>
          </mxGeometry>
        </mxCell>
        <mxCell id="5OKpuzXUWrd5rzmZAvVE-119" value="协议代理+keepalive" style="outlineConnect=0;fontColor=#232F3E;gradientColor=none;strokeColor=#232F3E;fillColor=#ffffff;dashed=0;verticalLabelPosition=bottom;verticalAlign=top;align=center;html=1;fontSize=12;fontStyle=0;aspect=fixed;shape=mxgraph.aws4.resourceIcon;resIcon=mxgraph.aws4.peering;" vertex="1" parent="1">
          <mxGeometry x="757" y="180.5" width="80" height="80" as="geometry"/>
        </mxCell>
        <mxCell id="5OKpuzXUWrd5rzmZAvVE-126" value="" style="endArrow=classic;startArrow=classic;html=1;" edge="1" parent="1" source="5OKpuzXUWrd5rzmZAvVE-119" target="5OKpuzXUWrd5rzmZAvVE-25">
          <mxGeometry width="50" height="50" relative="1" as="geometry">
            <mxPoint x="119" y="570.5" as="sourcePoint"/>
            <mxPoint x="169" y="520.5" as="targetPoint"/>
          </mxGeometry>
        </mxCell>
        <mxCell id="5OKpuzXUWrd5rzmZAvVE-127" value="" style="endArrow=classic;startArrow=classic;html=1;exitX=0.5;exitY=0;exitDx=0;exitDy=0;exitPerimeter=0;" edge="1" parent="1" source="5OKpuzXUWrd5rzmZAvVE-12" target="5OKpuzXUWrd5rzmZAvVE-119">
          <mxGeometry width="50" height="50" relative="1" as="geometry">
            <mxPoint x="40" y="550" as="sourcePoint"/>
            <mxPoint x="90" y="500" as="targetPoint"/>
            <Array as="points">
              <mxPoint x="640" y="223"/>
            </Array>
          </mxGeometry>
        </mxCell>
        <mxCell id="5OKpuzXUWrd5rzmZAvVE-129" value="" style="endArrow=classic;startArrow=classic;html=1;entryX=0.5;entryY=1;entryDx=0;entryDy=0;entryPerimeter=0;" edge="1" parent="1" source="5OKpuzXUWrd5rzmZAvVE-25" target="5OKpuzXUWrd5rzmZAvVE-12">
          <mxGeometry width="50" height="50" relative="1" as="geometry">
            <mxPoint x="40" y="550" as="sourcePoint"/>
            <mxPoint x="90" y="500" as="targetPoint"/>
            <Array as="points">
              <mxPoint x="642" y="401"/>
            </Array>
          </mxGeometry>
        </mxCell>
        <mxCell id="5OKpuzXUWrd5rzmZAvVE-131" value="" style="endArrow=classic;startArrow=classic;html=1;" edge="1" parent="1">
          <mxGeometry width="50" height="50" relative="1" as="geometry">
            <mxPoint x="840" y="220" as="sourcePoint"/>
            <mxPoint x="950" y="260" as="targetPoint"/>
            <Array as="points">
              <mxPoint x="950" y="220"/>
            </Array>
          </mxGeometry>
        </mxCell>
        <mxCell id="5OKpuzXUWrd5rzmZAvVE-132" value="" style="endArrow=classic;startArrow=classic;html=1;" edge="1" parent="1">
          <mxGeometry width="50" height="50" relative="1" as="geometry">
            <mxPoint x="950" y="340" as="sourcePoint"/>
            <mxPoint x="840" y="400" as="targetPoint"/>
            <Array as="points">
              <mxPoint x="950" y="400"/>
            </Array>
          </mxGeometry>
        </mxCell>
        <mxCell id="5OKpuzXUWrd5rzmZAvVE-135" value="两台服务器对外VIP一样" style="text;html=1;strokeColor=none;fillColor=none;align=center;verticalAlign=middle;whiteSpace=wrap;rounded=0;" vertex="1" parent="1">
          <mxGeometry x="722" y="158.5" width="150" height="20" as="geometry"/>
        </mxCell>
        <mxCell id="5OKpuzXUWrd5rzmZAvVE-136" value="VIP" style="text;html=1;strokeColor=none;fillColor=none;align=center;verticalAlign=middle;whiteSpace=wrap;rounded=0;" vertex="1" parent="1">
          <mxGeometry x="722" y="200.5" width="40" height="20" as="geometry"/>
        </mxCell>
        <mxCell id="5OKpuzXUWrd5rzmZAvVE-138" value="VIP" style="text;html=1;strokeColor=none;fillColor=none;align=center;verticalAlign=middle;whiteSpace=wrap;rounded=0;" vertex="1" parent="1">
          <mxGeometry x="722" y="402.5" width="40" height="20" as="geometry"/>
        </mxCell>
      </root>
    </mxGraphModel>
  </diagram>
</mxfile>
